<?xml version="1.0" encoding="UTF-8" standalone="no"?>
<!-- Created with Inkscape (http://www.inkscape.org/) -->

<svg
   xmlns:dc="http://purl.org/dc/elements/1.1/"
   xmlns:cc="http://creativecommons.org/ns#"
   xmlns:rdf="http://www.w3.org/1999/02/22-rdf-syntax-ns#"
   xmlns:svg="http://www.w3.org/2000/svg"
   xmlns="http://www.w3.org/2000/svg"
   xmlns:sodipodi="http://sodipodi.sourceforge.net/DTD/sodipodi-0.dtd"
   xmlns:inkscape="http://www.inkscape.org/namespaces/inkscape"
   width="84.467255mm"
   height="20.121033mm"
   viewBox="0 0 299.29342 71.295001"
   id="svg18352"
   version="1.1"
   inkscape:version="0.91 r13725"
   sodipodi:docname="email-footer.svg"
   inkscape:export-filename="/Users/dan/src/elfkit/public/email-footer.png"
   inkscape:export-xdpi="90"
   inkscape:export-ydpi="90">
  <defs
     id="defs18354" />
  <sodipodi:namedview
     id="base"
     pagecolor="#ffffff"
     bordercolor="#666666"
     borderopacity="1.0"
     inkscape:pageopacity="0.0"
     inkscape:pageshadow="2"
     inkscape:zoom="1"
     inkscape:cx="93.920597"
     inkscape:cy="47.744642"
     inkscape:document-units="px"
     inkscape:current-layer="layer1"
     showgrid="false"
     inkscape:window-width="1436"
     inkscape:window-height="855"
     inkscape:window-x="4"
     inkscape:window-y="0"
     inkscape:window-maximized="1"
     fit-margin-top="0"
     fit-margin-left="0"
     fit-margin-right="0"
     fit-margin-bottom="0" />
  <metadata
     id="metadata18357">
    <rdf:RDF>
      <cc:Work
         rdf:about="">
        <dc:format>image/svg+xml</dc:format>
        <dc:type
           rdf:resource="http://purl.org/dc/dcmitype/StillImage" />
        <dc:title></dc:title>
      </cc:Work>
    </rdf:RDF>
  </metadata>
  <g
     inkscape:label="Layer 1"
     inkscape:groupmode="layer"
     id="layer1"
     transform="translate(-56.48379,-760.89735)">
    <path
       d="m 168.22017,760.89735 0,7.50375 -3.75038,0 0,-3.75125 -3.7535,0 0,11.25625 -3.75237,0 0,-11.25625 -3.753,0 0,11.25625 -3.7515,0 0,-11.25625 -3.75287,0 0,3.75125 -3.75238,0 0,-7.50375 -3.7525,0 0,11.25625 7.50488,0 0,7.50375 7.50437,0 0,11.2575 -26.26612,0 0,3.7525 -7.50388,0 0,3.7525 3.752,0 0,11.25625 -3.752,0 0,22.51625 3.752,0 0,-18.76375 7.50488,0 0,18.76375 3.75287,0 0,-18.76375 3.751,0 0,-7.505 3.7525,0 0,3.7525 7.50525,0 0,22.51625 3.7515,0 0,-26.26875 7.50537,0 0,11.2575 3.7535,0 0,-15.00875 -7.50587,0 0,-3.7525 3.75237,0 0,-7.505 3.7535,0 0,-7.50375 3.75038,0 0,-3.75375 3.75238,0 0,-3.75125 -7.50276,0 0,-3.7525 7.50276,0 0,-11.25625 -3.75238,0"
       style="fill:#b21d26;fill-opacity:1;fill-rule:nonzero;stroke:none"
       id="path7115"
       inkscape:connector-curvature="0" />
    <path
       d="m 239.51504,760.89735 0,7.50375 3.7525,0 0,-3.75125 3.7525,0 0,11.25625 3.7525,0 0,-11.25625 3.7525,0 0,11.25625 3.75125,0 0,-11.25625 3.7525,0 0,3.75125 3.7525,0 0,-7.50375 3.7525,0 0,11.25625 -7.505,0 0,7.50375 -7.50375,0 0,11.2575 26.265,0 0,3.7525 7.505,0 0,3.7525 -3.7525,0 0,11.25625 3.7525,0 0,22.51625 -3.7525,0 0,-18.76375 -7.505,0 0,18.76375 -3.75125,0 0,-18.76375 -3.7525,0 0,-7.505 -3.75249,0 0,3.7525 -7.505,0 0,22.51625 -3.75125,0 0,-26.26875 -7.505,0 0,11.2575 -3.7525,0 0,-15.00875 7.505,0 0,-3.7525 -3.7525,0 0,-7.505 -3.7525,0 0,-7.50375 -3.7525,0 0,-3.75375 -3.7525,0 0,-3.75125 7.505,0 0,-3.7525 -7.505,0 0,-11.25625 3.7525,0"
       style="fill:#b21d26;fill-opacity:1;fill-rule:nonzero;stroke:none"
       id="path7117"
       inkscape:connector-curvature="0" />
    <path
       d="m 213.2488,813.4286 3.75097,0 0,-3.75244 -3.75097,0 0,3.75244 z"
       style="fill:#b21d26;fill-opacity:1;fill-rule:nonzero;stroke:none"
       id="path7167"
       inkscape:connector-curvature="0" />
    <path
       d="m 220.75379,813.4286 3.75,0 0,-3.75244 -3.75,0 0,3.75244 z"
       style="fill:#b21d26;fill-opacity:1;fill-rule:nonzero;stroke:none"
       id="path7169"
       inkscape:connector-curvature="0" />
    <path
       d="m 217.00005,809.6761 3.75391,0 0,-3.75244 -3.75391,0 0,3.75244 z"
       style="fill:#b21d26;fill-opacity:1;fill-rule:nonzero;stroke:none"
       id="path7171"
       inkscape:connector-curvature="0" />
    <path
       d="m 217.00005,817.1811 3.75391,0 0,-3.75244 -3.75391,0 0,3.75244 z"
       style="fill:#b21d26;fill-opacity:1;fill-rule:nonzero;stroke:none"
       id="path7173"
       inkscape:connector-curvature="0" />
    <path
       d="m 198.24004,798.41985 3.75098,0 0,-3.75244 -3.75098,0 0,3.75244 z"
       style="fill:#b21d26;fill-opacity:1;fill-rule:nonzero;stroke:none"
       id="path7175"
       inkscape:connector-curvature="0" />
    <path
       d="m 205.74505,798.41985 3.75097,0 0,-3.75244 -3.75097,0 0,3.75244 z"
       style="fill:#b21d26;fill-opacity:1;fill-rule:nonzero;stroke:none"
       id="path7177"
       inkscape:connector-curvature="0" />
    <path
       d="m 201.99129,794.66735 3.75392,0 0,-3.75244 -3.75392,0 0,3.75244 z"
       style="fill:#b21d26;fill-opacity:1;fill-rule:nonzero;stroke:none"
       id="path7179"
       inkscape:connector-curvature="0" />
    <path
       d="m 201.99129,802.17235 3.75392,0 0,-3.75292 -3.75392,0 0,3.75292 z"
       style="fill:#b21d26;fill-opacity:1;fill-rule:nonzero;stroke:none"
       id="path7181"
       inkscape:connector-curvature="0" />
    <path
       d="m 198.24004,772.1536 3.75098,0 0,-3.75244 -3.75098,0 0,3.75244 z"
       style="fill:#b21d26;fill-opacity:1;fill-rule:nonzero;stroke:none"
       id="path7183"
       inkscape:connector-curvature="0" />
    <path
       d="m 205.74505,772.1536 3.75097,0 0,-3.75244 -3.75097,0 0,3.75244 z"
       style="fill:#b21d26;fill-opacity:1;fill-rule:nonzero;stroke:none"
       id="path7185"
       inkscape:connector-curvature="0" />
    <path
       d="m 201.99129,768.4011 3.75392,0 0,-3.75146 -3.75392,0 0,3.75146 z"
       style="fill:#b21d26;fill-opacity:1;fill-rule:nonzero;stroke:none"
       id="path7187"
       inkscape:connector-curvature="0" />
    <path
       d="m 201.99129,775.9061 3.75392,0 0,-3.75244 -3.75392,0 0,3.75244 z"
       style="fill:#b21d26;fill-opacity:1;fill-rule:nonzero;stroke:none"
       id="path7189"
       inkscape:connector-curvature="0" />
    <path
       d="m 198.24004,824.6861 3.75098,0 0,-3.75244 -3.75098,0 0,3.75244 z"
       style="fill:#b21d26;fill-opacity:1;fill-rule:nonzero;stroke:none"
       id="path7191"
       inkscape:connector-curvature="0" />
    <path
       d="m 205.74505,824.6861 3.75097,0 0,-3.75244 -3.75097,0 0,3.75244 z"
       style="fill:#b21d26;fill-opacity:1;fill-rule:nonzero;stroke:none"
       id="path7193"
       inkscape:connector-curvature="0" />
    <path
       d="m 201.99129,820.9336 3.75392,0 0,-3.75292 -3.75392,0 0,3.75292 z"
       style="fill:#b21d26;fill-opacity:1;fill-rule:nonzero;stroke:none"
       id="path7195"
       inkscape:connector-curvature="0" />
    <path
       d="m 201.99129,828.4386 3.75392,0 0,-3.75244 -3.75392,0 0,3.75244 z"
       style="fill:#b21d26;fill-opacity:1;fill-rule:nonzero;stroke:none"
       id="path7197"
       inkscape:connector-curvature="0" />
    <path
       d="m 183.23005,813.4286 3.75243,0 0,-3.75244 -3.75243,0 0,3.75244 z"
       style="fill:#b21d26;fill-opacity:1;fill-rule:nonzero;stroke:none"
       id="path7199"
       inkscape:connector-curvature="0" />
    <path
       d="m 190.73504,813.4286 3.75244,0 0,-3.75244 -3.75244,0 0,3.75244 z"
       style="fill:#b21d26;fill-opacity:1;fill-rule:nonzero;stroke:none"
       id="path7201"
       inkscape:connector-curvature="0" />
    <path
       d="m 186.98254,809.6761 3.75244,0 0,-3.75244 -3.75244,0 0,3.75244 z"
       style="fill:#b21d26;fill-opacity:1;fill-rule:nonzero;stroke:none"
       id="path7203"
       inkscape:connector-curvature="0" />
    <path
       d="m 186.98254,817.1811 3.75244,0 0,-3.75244 -3.75244,0 0,3.75244 z"
       style="fill:#b21d26;fill-opacity:1;fill-rule:nonzero;stroke:none"
       id="path7205"
       inkscape:connector-curvature="0" />
    <path
       d="m 213.2488,787.1636 3.75097,0 0,-3.75244 -3.75097,0 0,3.75244 z"
       style="fill:#b21d26;fill-opacity:1;fill-rule:nonzero;stroke:none"
       id="path7207"
       inkscape:connector-curvature="0" />
    <path
       d="m 220.75379,787.1636 3.75,0 0,-3.75244 -3.75,0 0,3.75244 z"
       style="fill:#b21d26;fill-opacity:1;fill-rule:nonzero;stroke:none"
       id="path7209"
       inkscape:connector-curvature="0" />
    <path
       d="m 217.00005,783.4111 3.75391,0 0,-3.75391 -3.75391,0 0,3.75391 z"
       style="fill:#b21d26;fill-opacity:1;fill-rule:nonzero;stroke:none"
       id="path7211"
       inkscape:connector-curvature="0" />
    <path
       d="m 217.00005,790.91485 3.75391,0 0,-3.75097 -3.75391,0 0,3.75097 z"
       style="fill:#b21d26;fill-opacity:1;fill-rule:nonzero;stroke:none"
       id="path7213"
       inkscape:connector-curvature="0" />
    <path
       d="m 183.23005,787.1636 3.75243,0 0,-3.75244 -3.75243,0 0,3.75244 z"
       style="fill:#b21d26;fill-opacity:1;fill-rule:nonzero;stroke:none"
       id="path7215"
       inkscape:connector-curvature="0" />
    <path
       d="m 190.73504,787.1636 3.75244,0 0,-3.75244 -3.75244,0 0,3.75244 z"
       style="fill:#b21d26;fill-opacity:1;fill-rule:nonzero;stroke:none"
       id="path7217"
       inkscape:connector-curvature="0" />
    <path
       d="m 186.98254,783.4111 3.75244,0 0,-3.75391 -3.75244,0 0,3.75391 z"
       style="fill:#b21d26;fill-opacity:1;fill-rule:nonzero;stroke:none"
       id="path7219"
       inkscape:connector-curvature="0" />
    <path
       d="m 186.98254,790.91485 3.75244,0 0,-3.75097 -3.75244,0 0,3.75097 z"
       style="fill:#b21d26;fill-opacity:1;fill-rule:nonzero;stroke:none"
       id="path7221"
       inkscape:connector-curvature="0" />
    <path
       d="m 100.67917,813.4286 3.75244,0 0,-3.75244 -3.75244,0 0,3.75244 z"
       style="fill:#b21d26;fill-opacity:1;fill-rule:nonzero;stroke:none"
       id="path7223"
       inkscape:connector-curvature="0" />
    <path
       d="m 108.18355,813.4286 3.75146,0 0,-3.75244 -3.75146,0 0,3.75244 z"
       style="fill:#b21d26;fill-opacity:1;fill-rule:nonzero;stroke:none"
       id="path7225"
       inkscape:connector-curvature="0" />
    <path
       d="m 104.43167,809.6761 3.75195,0 0,-3.75244 -3.75195,0 0,3.75244 z"
       style="fill:#b21d26;fill-opacity:1;fill-rule:nonzero;stroke:none"
       id="path7227"
       inkscape:connector-curvature="0" />
    <path
       d="m 104.43167,817.1811 3.75195,0 0,-3.75244 -3.75195,0 0,3.75244 z"
       style="fill:#b21d26;fill-opacity:1;fill-rule:nonzero;stroke:none"
       id="path7229"
       inkscape:connector-curvature="0" />
    <path
       d="m 85.669921,798.41985 3.752437,0 0,-3.75244 -3.752437,0 0,3.75244 z"
       style="fill:#b21d26;fill-opacity:1;fill-rule:nonzero;stroke:none"
       id="path7231"
       inkscape:connector-curvature="0" />
    <path
       d="m 93.174296,798.41985 3.752925,0 0,-3.75244 -3.752925,0 0,3.75244 z"
       style="fill:#b21d26;fill-opacity:1;fill-rule:nonzero;stroke:none"
       id="path7233"
       inkscape:connector-curvature="0" />
    <path
       d="m 89.422421,794.66735 3.75195,0 0,-3.75244 -3.75195,0 0,3.75244 z"
       style="fill:#b21d26;fill-opacity:1;fill-rule:nonzero;stroke:none"
       id="path7235"
       inkscape:connector-curvature="0" />
    <path
       d="m 89.422421,802.17235 3.75195,0 0,-3.75292 -3.75195,0 0,3.75292 z"
       style="fill:#b21d26;fill-opacity:1;fill-rule:nonzero;stroke:none"
       id="path7237"
       inkscape:connector-curvature="0" />
    <path
       d="m 85.669921,772.1536 3.752437,0 0,-3.75244 -3.752437,0 0,3.75244 z"
       style="fill:#b21d26;fill-opacity:1;fill-rule:nonzero;stroke:none"
       id="path7247"
       inkscape:connector-curvature="0" />
    <path
       d="m 93.174296,772.1536 3.752925,0 0,-3.75244 -3.752925,0 0,3.75244 z"
       style="fill:#b21d26;fill-opacity:1;fill-rule:nonzero;stroke:none"
       id="path7249"
       inkscape:connector-curvature="0" />
    <path
       d="m 89.422421,768.4011 3.75195,0 0,-3.75146 -3.75195,0 0,3.75146 z"
       style="fill:#b21d26;fill-opacity:1;fill-rule:nonzero;stroke:none"
       id="path7251"
       inkscape:connector-curvature="0" />
    <path
       d="m 89.422421,775.9061 3.75195,0 0,-3.75244 -3.75195,0 0,3.75244 z"
       style="fill:#b21d26;fill-opacity:1;fill-rule:nonzero;stroke:none"
       id="path7253"
       inkscape:connector-curvature="0" />
    <path
       d="m 85.669921,824.6861 3.752437,0 0,-3.75244 -3.752437,0 0,3.75244 z"
       style="fill:#b21d26;fill-opacity:1;fill-rule:nonzero;stroke:none"
       id="path7255"
       inkscape:connector-curvature="0" />
    <path
       d="m 93.174296,824.6861 3.752925,0 0,-3.75244 -3.752925,0 0,3.75244 z"
       style="fill:#b21d26;fill-opacity:1;fill-rule:nonzero;stroke:none"
       id="path7257"
       inkscape:connector-curvature="0" />
    <path
       d="m 89.422421,820.9336 3.75195,0 0,-3.75292 -3.75195,0 0,3.75292 z"
       style="fill:#b21d26;fill-opacity:1;fill-rule:nonzero;stroke:none"
       id="path7259"
       inkscape:connector-curvature="0" />
    <path
       d="m 89.422421,828.4386 3.75195,0 0,-3.75244 -3.75195,0 0,3.75244 z"
       style="fill:#b21d26;fill-opacity:1;fill-rule:nonzero;stroke:none"
       id="path7261"
       inkscape:connector-curvature="0" />
    <path
       d="m 70.661171,813.4286 3.75195,0 0,-3.75244 -3.75195,0 0,3.75244 z"
       style="fill:#b21d26;fill-opacity:1;fill-rule:nonzero;stroke:none"
       id="path7263"
       inkscape:connector-curvature="0" />
    <path
       d="m 78.166546,813.4286 3.750975,0 0,-3.75244 -3.750975,0 0,3.75244 z"
       style="fill:#b21d26;fill-opacity:1;fill-rule:nonzero;stroke:none"
       id="path7265"
       inkscape:connector-curvature="0" />
    <path
       d="m 74.413046,809.6761 3.753412,0 0,-3.75244 -3.753412,0 0,3.75244 z"
       style="fill:#b21d26;fill-opacity:1;fill-rule:nonzero;stroke:none"
       id="path7267"
       inkscape:connector-curvature="0" />
    <path
       d="m 74.413046,817.1811 3.753412,0 0,-3.75244 -3.753412,0 0,3.75244 z"
       style="fill:#b21d26;fill-opacity:1;fill-rule:nonzero;stroke:none"
       id="path7269"
       inkscape:connector-curvature="0" />
    <path
       d="m 100.67917,787.1636 3.75244,0 0,-3.75244 -3.75244,0 0,3.75244 z"
       style="fill:#b21d26;fill-opacity:1;fill-rule:nonzero;stroke:none"
       id="path7271"
       inkscape:connector-curvature="0" />
    <path
       d="m 108.18355,787.1636 3.75146,0 0,-3.75244 -3.75146,0 0,3.75244 z"
       style="fill:#b21d26;fill-opacity:1;fill-rule:nonzero;stroke:none"
       id="path7273"
       inkscape:connector-curvature="0" />
    <path
       d="m 104.43167,783.4111 3.75195,0 0,-3.75391 -3.75195,0 0,3.75391 z"
       style="fill:#b21d26;fill-opacity:1;fill-rule:nonzero;stroke:none"
       id="path7275"
       inkscape:connector-curvature="0" />
    <path
       d="m 104.43167,790.91485 3.75195,0 0,-3.75097 -3.75195,0 0,3.75097 z"
       style="fill:#b21d26;fill-opacity:1;fill-rule:nonzero;stroke:none"
       id="path7277"
       inkscape:connector-curvature="0" />
    <path
       d="m 70.661171,787.1636 3.75195,0 0,-3.75244 -3.75195,0 0,3.75244 z"
       style="fill:#b21d26;fill-opacity:1;fill-rule:nonzero;stroke:none"
       id="path7279"
       inkscape:connector-curvature="0" />
    <path
       d="m 78.166546,787.1636 3.750975,0 0,-3.75244 -3.750975,0 0,3.75244 z"
       style="fill:#b21d26;fill-opacity:1;fill-rule:nonzero;stroke:none"
       id="path7281"
       inkscape:connector-curvature="0" />
    <path
       d="m 74.413046,783.4111 3.753412,0 0,-3.75391 -3.753412,0 0,3.75391 z"
       style="fill:#b21d26;fill-opacity:1;fill-rule:nonzero;stroke:none"
       id="path7283"
       inkscape:connector-curvature="0" />
    <path
       d="m 74.413046,790.91485 3.753412,0 0,-3.75097 -3.753412,0 0,3.75097 z"
       style="fill:#b21d26;fill-opacity:1;fill-rule:nonzero;stroke:none"
       id="path7285"
       inkscape:connector-curvature="0" />
    <path
       d="m 306.84255,814.1261 3.76367,0 0,-3.76367 -3.76367,0 0,3.76367 z"
       style="fill:#b21d26;fill-opacity:1;fill-rule:nonzero;stroke:none"
       id="path8063"
       inkscape:connector-curvature="0" />
    <path
       d="m 299.31255,814.1261 3.76513,0 0,-3.76367 -3.76513,0 0,3.76367 z"
       style="fill:#b21d26;fill-opacity:1;fill-rule:nonzero;stroke:none"
       id="path8065"
       inkscape:connector-curvature="0" />
    <path
       d="m 303.07755,810.36235 3.76513,0 0,-3.76514 -3.76513,0 0,3.76514 z"
       style="fill:#b21d26;fill-opacity:1;fill-rule:nonzero;stroke:none"
       id="path8067"
       inkscape:connector-curvature="0" />
    <path
       d="m 303.07755,817.8911 3.76513,0 0,-3.76514 -3.76513,0 0,3.76514 z"
       style="fill:#b21d26;fill-opacity:1;fill-rule:nonzero;stroke:none"
       id="path8069"
       inkscape:connector-curvature="0" />
    <path
       d="m 321.89879,799.06985 3.76465,0 0,-3.7666 -3.76465,0 0,3.7666 z"
       style="fill:#b21d26;fill-opacity:1;fill-rule:nonzero;stroke:none"
       id="path8071"
       inkscape:connector-curvature="0" />
    <path
       d="m 314.37004,799.06985 3.76514,0 0,-3.7666 -3.76514,0 0,3.7666 z"
       style="fill:#b21d26;fill-opacity:1;fill-rule:nonzero;stroke:none"
       id="path8073"
       inkscape:connector-curvature="0" />
    <path
       d="m 318.13504,795.3036 3.76368,0 0,-3.76367 -3.76368,0 0,3.76367 z"
       style="fill:#b21d26;fill-opacity:1;fill-rule:nonzero;stroke:none"
       id="path8075"
       inkscape:connector-curvature="0" />
    <path
       d="m 318.13504,802.8336 3.76368,0 0,-3.76367 -3.76368,0 0,3.76367 z"
       style="fill:#b21d26;fill-opacity:1;fill-rule:nonzero;stroke:none"
       id="path8077"
       inkscape:connector-curvature="0" />
    <path
       d="m 352.01254,799.06985 3.76466,0 0,-3.7666 -3.76466,0 0,3.7666 z"
       style="fill:#b21d26;fill-opacity:1;fill-rule:nonzero;stroke:none"
       id="path8079"
       inkscape:connector-curvature="0" />
    <path
       d="m 344.48379,799.06985 3.76514,0 0,-3.7666 -3.76514,0 0,3.7666 z"
       style="fill:#b21d26;fill-opacity:1;fill-rule:nonzero;stroke:none"
       id="path8081"
       inkscape:connector-curvature="0" />
    <path
       d="m 348.24879,795.3036 3.76368,0 0,-3.76367 -3.76368,0 0,3.76367 z"
       style="fill:#b21d26;fill-opacity:1;fill-rule:nonzero;stroke:none"
       id="path8083"
       inkscape:connector-curvature="0" />
    <path
       d="m 348.24879,802.8336 3.76368,0 0,-3.76367 -3.76368,0 0,3.76367 z"
       style="fill:#b21d26;fill-opacity:1;fill-rule:nonzero;stroke:none"
       id="path8085"
       inkscape:connector-curvature="0" />
    <path
       d="m 321.89879,772.7186 3.76465,0 0,-3.76465 -3.76465,0 0,3.76465 z"
       style="fill:#b21d26;fill-opacity:1;fill-rule:nonzero;stroke:none"
       id="path8087"
       inkscape:connector-curvature="0" />
    <path
       d="m 314.37004,772.7186 3.76514,0 0,-3.76465 -3.76514,0 0,3.76465 z"
       style="fill:#b21d26;fill-opacity:1;fill-rule:nonzero;stroke:none"
       id="path8089"
       inkscape:connector-curvature="0" />
    <path
       d="m 318.13504,768.9536 3.76368,0 0,-3.76416 -3.76368,0 0,3.76416 z"
       style="fill:#b21d26;fill-opacity:1;fill-rule:nonzero;stroke:none"
       id="path8091"
       inkscape:connector-curvature="0" />
    <path
       d="m 318.13504,776.48235 3.76368,0 0,-3.76367 -3.76368,0 0,3.76367 z"
       style="fill:#b21d26;fill-opacity:1;fill-rule:nonzero;stroke:none"
       id="path8093"
       inkscape:connector-curvature="0" />
    <path
       d="m 321.89879,825.41985 3.76465,0 0,-3.76465 -3.76465,0 0,3.76465 z"
       style="fill:#b21d26;fill-opacity:1;fill-rule:nonzero;stroke:none"
       id="path8095"
       inkscape:connector-curvature="0" />
    <path
       d="m 314.37004,825.41985 3.76514,0 0,-3.76465 -3.76514,0 0,3.76465 z"
       style="fill:#b21d26;fill-opacity:1;fill-rule:nonzero;stroke:none"
       id="path8097"
       inkscape:connector-curvature="0" />
    <path
       d="m 318.13504,821.65485 3.76368,0 0,-3.76367 -3.76368,0 0,3.76367 z"
       style="fill:#b21d26;fill-opacity:1;fill-rule:nonzero;stroke:none"
       id="path8099"
       inkscape:connector-curvature="0" />
    <path
       d="m 318.13504,829.1836 3.76368,0 0,-3.76416 -3.76368,0 0,3.76416 z"
       style="fill:#b21d26;fill-opacity:1;fill-rule:nonzero;stroke:none"
       id="path8101"
       inkscape:connector-curvature="0" />
    <path
       d="m 336.95754,814.1261 3.76368,0 0,-3.76367 -3.76368,0 0,3.76367 z"
       style="fill:#b21d26;fill-opacity:1;fill-rule:nonzero;stroke:none"
       id="path8103"
       inkscape:connector-curvature="0" />
    <path
       d="m 329.42754,814.1261 3.76465,0 0,-3.76367 -3.76465,0 0,3.76367 z"
       style="fill:#b21d26;fill-opacity:1;fill-rule:nonzero;stroke:none"
       id="path8105"
       inkscape:connector-curvature="0" />
    <path
       d="m 333.19254,810.36235 3.76514,0 0,-3.76514 -3.76514,0 0,3.76514 z"
       style="fill:#b21d26;fill-opacity:1;fill-rule:nonzero;stroke:none"
       id="path8107"
       inkscape:connector-curvature="0" />
    <path
       d="m 333.19254,817.8911 3.76514,0 0,-3.76514 -3.76514,0 0,3.76514 z"
       style="fill:#b21d26;fill-opacity:1;fill-rule:nonzero;stroke:none"
       id="path8109"
       inkscape:connector-curvature="0" />
    <path
       d="m 306.84255,787.7761 3.76367,0 0,-3.76514 -3.76367,0 0,3.76514 z"
       style="fill:#b21d26;fill-opacity:1;fill-rule:nonzero;stroke:none"
       id="path8111"
       inkscape:connector-curvature="0" />
    <path
       d="m 299.31255,787.7761 3.76513,0 0,-3.76514 -3.76513,0 0,3.76514 z"
       style="fill:#b21d26;fill-opacity:1;fill-rule:nonzero;stroke:none"
       id="path8113"
       inkscape:connector-curvature="0" />
    <path
       d="m 303.07755,784.0111 3.76513,0 0,-3.76367 -3.76513,0 0,3.76367 z"
       style="fill:#b21d26;fill-opacity:1;fill-rule:nonzero;stroke:none"
       id="path8115"
       inkscape:connector-curvature="0" />
    <path
       d="m 303.07755,791.53985 3.76513,0 0,-3.76367 -3.76513,0 0,3.76367 z"
       style="fill:#b21d26;fill-opacity:1;fill-rule:nonzero;stroke:none"
       id="path8117"
       inkscape:connector-curvature="0" />
    <path
       d="m 336.95754,787.7761 3.76368,0 0,-3.76514 -3.76368,0 0,3.76514 z"
       style="fill:#b21d26;fill-opacity:1;fill-rule:nonzero;stroke:none"
       id="path8119"
       inkscape:connector-curvature="0" />
    <path
       d="m 329.42754,787.7761 3.76465,0 0,-3.76514 -3.76465,0 0,3.76514 z"
       style="fill:#b21d26;fill-opacity:1;fill-rule:nonzero;stroke:none"
       id="path8121"
       inkscape:connector-curvature="0" />
    <path
       d="m 333.19254,784.0111 3.76514,0 0,-3.76367 -3.76514,0 0,3.76367 z"
       style="fill:#b21d26;fill-opacity:1;fill-rule:nonzero;stroke:none"
       id="path8123"
       inkscape:connector-curvature="0" />
    <path
       d="m 333.19254,791.53985 3.76514,0 0,-3.76367 -3.76514,0 0,3.76367 z"
       style="fill:#b21d26;fill-opacity:1;fill-rule:nonzero;stroke:none"
       id="path8125"
       inkscape:connector-curvature="0" />
    <path
       inkscape:connector-curvature="0"
       id="path12083"
       style="fill:#b21d26;fill-opacity:1;fill-rule:nonzero;stroke:none"
       d="m 64.01254,799.06985 3.76466,0 0,-3.7666 -3.76466,0 0,3.7666 z" />
    <path
       inkscape:connector-curvature="0"
       id="path12085"
       style="fill:#b21d26;fill-opacity:1;fill-rule:nonzero;stroke:none"
       d="m 56.48379,799.06985 3.76514,0 0,-3.7666 -3.76514,0 0,3.7666 z" />
    <path
       inkscape:connector-curvature="0"
       id="path12087"
       style="fill:#b21d26;fill-opacity:1;fill-rule:nonzero;stroke:none"
       d="m 60.24879,795.3036 3.76368,0 0,-3.76367 -3.76368,0 0,3.76367 z" />
    <path
       inkscape:connector-curvature="0"
       id="path12089"
       style="fill:#b21d26;fill-opacity:1;fill-rule:nonzero;stroke:none"
       d="m 60.24879,802.8336 3.76368,0 0,-3.76367 -3.76368,0 0,3.76367 z" />
  </g>
</svg>
