<?xml version="1.0" encoding="UTF-8" standalone="no"?>
<!-- Created with Inkscape (http://www.inkscape.org/) -->

<svg
   xmlns:dc="http://purl.org/dc/elements/1.1/"
   xmlns:cc="http://creativecommons.org/ns#"
   xmlns:rdf="http://www.w3.org/1999/02/22-rdf-syntax-ns#"
   xmlns:svg="http://www.w3.org/2000/svg"
   xmlns="http://www.w3.org/2000/svg"
   xmlns:sodipodi="http://sodipodi.sourceforge.net/DTD/sodipodi-0.dtd"
   xmlns:inkscape="http://www.inkscape.org/namespaces/inkscape"
   width="13.76632mm"
   height="13.766803mm"
   viewBox="0 0 48.7783 48.78001"
   id="svg4413"
   version="1.1"
   inkscape:version="0.91 r"
   sodipodi:docname="favicon.svg">
  <defs
     id="defs4415" />
  <sodipodi:namedview
     id="base"
     pagecolor="#ffffff"
     bordercolor="#666666"
     borderopacity="1.0"
     inkscape:pageopacity="0.0"
     inkscape:pageshadow="2"
     inkscape:zoom="0.35"
     inkscape:cx="-179.18228"
     inkscape:cy="-69.895715"
     inkscape:document-units="px"
     inkscape:current-layer="layer1"
     showgrid="false"
     fit-margin-top="0"
     fit-margin-left="0"
     fit-margin-right="0"
     fit-margin-bottom="0"
     inkscape:window-width="1920"
     inkscape:window-height="1176"
     inkscape:window-x="0"
     inkscape:window-y="0"
     inkscape:window-maximized="1" />
  <metadata
     id="metadata4418">
    <rdf:RDF>
      <cc:Work
         rdf:about="">
        <dc:format>image/svg+xml</dc:format>
        <dc:type
           rdf:resource="http://purl.org/dc/dcmitype/StillImage" />
        <dc:title></dc:title>
      </cc:Work>
    </rdf:RDF>
  </metadata>
  <g
     inkscape:label="Layer 1"
     inkscape:groupmode="layer"
     id="layer1"
     transform="translate(-124.18228,-413.68648)">
    <path
       d="m 139.19008,428.69523 3.753,0 0,3.75375 3.7519,0 0,3.75125 3.7525,0 0,-3.75125 3.7518,0 0,-3.75375 3.7515,0 0,-3.75125 3.7535,0 0,-11.2575 -3.7535,0 0,3.7525 -3.7515,0 0,3.7525 -3.7518,0 0,3.7525 -3.7525,0 0,-3.7525 -3.7519,0 0,-3.7525 -3.753,0 0,-3.7525 -3.7519,0 0,11.2575 3.7519,0 0,3.75125"
       style="fill:#b21d26;fill-opacity:1;fill-rule:nonzero;stroke:none"
       id="path7119"
       inkscape:connector-curvature="0" />
    <path
       d="m 157.95078,447.45773 -3.7515,0 0,-3.7525 -3.7518,0 0,-3.75125 -3.7525,0 0,3.75125 -3.7519,0 0,3.7525 -3.753,0 0,3.75126 -3.7519,0 0,11.2575 3.7519,0 0,-3.75125 3.753,0 0,-3.75375 3.7519,0 0,-3.7525 3.7525,0 0,3.7525 3.7518,0 0,3.75375 3.7515,0 0,3.75125 3.7535,0 0,-11.2575 -3.7535,0 0,-3.75126"
       style="fill:#b21d26;fill-opacity:1;fill-rule:nonzero;stroke:none"
       id="path7121"
       inkscape:connector-curvature="0" />
    <path
       d="m 139.19008,447.45773 0,-3.7525 3.753,0 0,-3.75125 3.7519,0 0,-3.75375 -3.7519,0 0,-3.75125 -3.753,0 0,-3.75375 -3.7519,0 0,-3.75125 -11.2559,0 0,3.75125 3.751,0 0,3.75375 3.7524,0 0,3.75125 3.7525,0 0,3.75375 -3.7525,0 0,3.75125 -3.7524,0 0,3.7525 -3.751,0 0,3.75126 11.2559,0 0,-3.75126 3.7519,0"
       style="fill:#b21d26;fill-opacity:1;fill-rule:nonzero;stroke:none"
       id="path7123"
       inkscape:connector-curvature="0" />
    <path
       d="m 161.70428,428.69523 -3.7535,0 0,3.75375 -3.7515,0 0,3.75125 -3.7518,0 0,3.75375 3.7518,0 0,3.75125 3.7515,0 0,3.7525 3.7535,0 0,3.75126 11.2563,0 0,-3.75126 -3.7519,0 0,-3.7525 -3.752,0 0,-3.75125 -3.7524,0 0,-3.75375 3.7524,0 0,-3.75125 3.752,0 0,-3.75375 3.7519,0 0,-3.75125 -11.2563,0 0,3.75125"
       style="fill:#b21d26;fill-opacity:1;fill-rule:nonzero;stroke:none"
       id="path7125"
       inkscape:connector-curvature="0" />
  </g>
</svg>
