<?xml version="1.0" standalone="no"?>
<!DOCTYPE svg PUBLIC "-//W3C//DTD SVG 20010904//EN"
 "http://www.w3.org/TR/2001/REC-SVG-20010904/DTD/svg10.dtd">
<svg version="1.0" xmlns="http://www.w3.org/2000/svg"
 width="700.000000pt" height="700.000000pt" viewBox="0 0 700.000000 700.000000"
 preserveAspectRatio="xMidYMid meet">
<metadata>
Created by potrace 1.11, written by Peter Selinger 2001-2013
</metadata>
<g transform="translate(0.000000,700.000000) scale(0.100000,-0.100000)"
fill="#000000" stroke="none">
<path d="M1615 6193 l0 -808 -795 -1 c-437 -1 -801 -2 -807 -3 -19 -2 -19
-527 0 -533 6 -2 128 -3 269 -3 l257 1 0 -265 c1 -145 3 -266 5 -268 2 -2 122
-5 267 -6 l264 -2 2 -255 c0 -140 2 -261 2 -267 1 -10 61 -13 265 -13 202 0
265 -3 268 -12 2 -7 4 -128 4 -268 l-1 -255 -270 -5 -270 -5 0 -265 0 -265
-264 -2 c-145 -1 -265 -4 -267 -6 -2 -2 -4 -123 -5 -268 l-1 -265 -256 1
c-141 0 -263 -1 -269 -3 -10 -3 -13 -66 -13 -271 l0 -266 808 0 807 0 0 -805
0 -805 270 0 269 0 0 267 0 268 210 -1 c116 0 237 0 268 0 l58 1 2 268 3 267
265 0 265 0 5 270 5 270 255 1 c140 0 261 -2 268 -4 9 -3 12 -66 12 -268 0
-145 3 -264 8 -265 4 0 124 -2 267 -2 l260 -2 2 -264 c1 -145 4 -265 6 -268 3
-2 123 -5 268 -6 l264 -2 1 -265 0 -265 270 -3 269 -2 -1 802 c-1 442 -2 805
-3 808 0 3 -120 5 -266 5 -146 0 -265 2 -266 5 -5 24 -2 514 3 523 4 7 91 11
267 11 225 1 261 -1 262 -14 1 -8 3 -125 4 -260 1 -135 3 -250 4 -255 1 -7
274 -10 804 -10 l802 0 0 270 0 269 -267 -1 -266 0 0 264 c-1 146 -3 267 -5
269 -2 3 -123 5 -269 5 l-264 0 1 257 c0 141 -1 263 -3 270 -3 9 -65 12 -267
12 -201 0 -264 3 -267 13 -2 6 -4 127 -4 267 l1 255 270 3 270 2 -1 269 -1
269 264 0 c145 0 267 2 270 5 3 3 6 124 6 269 l2 263 265 1 265 1 3 269 2 269
-807 0 -808 0 0 805 0 805 -270 0 -270 0 0 -265 0 -265 -265 -3 c-145 -2 -266
-5 -268 -7 -2 -2 -4 -122 -4 -268 l1 -264 -267 0 -267 1 -5 -270 -5 -269 -265
0 -265 0 -3 265 c-1 145 -6 266 -11 270 -5 3 -126 5 -270 4 l-261 -1 0 246 c0
135 0 256 0 268 l0 23 -267 2 -268 3 0 268 0 267 -270 0 -270 0 0 -807z m536
-828 c1 -11 2 -132 3 -270 l1 -249 268 0 267 1 0 -41 c1 -23 1 -143 1 -268 1
-204 3 -228 18 -229 9 0 130 0 269 0 l252 0 0 -270 0 -269 270 0 270 0 0 269
0 269 263 0 c144 1 265 1 269 1 4 1 7 101 7 224 0 122 0 242 0 267 l1 46 268
0 268 0 0 -269 -1 -269 -267 0 c-239 -1 -268 -3 -268 -17 -1 -9 -1 -130 -1
-268 l0 -253 -269 0 -270 0 0 -270 0 -270 269 0 269 0 -2 -267 -1 -268 -267
-2 -268 -3 0 270 0 270 -270 0 -270 0 0 -270 0 -270 -270 1 -269 0 0 270 -1
269 270 0 270 0 0 270 0 270 -269 0 -270 0 0 268 0 267 -268 1 -268 2 -1 258
c-1 143 -2 264 -3 270 -1 7 -83 10 -258 9 -142 0 -263 1 -268 2 -7 2 -10 98
-9 271 1 147 2 267 3 267 0 0 120 0 266 0 259 0 265 0 266 -20z m3224 13 c7
-4 10 -99 9 -265 -1 -142 -2 -260 -3 -263 -2 -11 -523 -4 -529 7 -5 9 -8 499
-3 523 1 8 514 6 526 -2z m-2688 -2692 c4 -3 5 -197 4 -452 l-1 -81 -267 1
-268 0 -2 -264 c0 -146 -2 -267 -2 -270 -2 -9 -519 -6 -527 3 -13 12 -12 526
1 530 5 1 125 2 265 1 140 0 257 2 260 7 3 4 5 124 4 268 0 256 0 260 20 263
31 4 508 -1 513 -6z m2129 4 l30 0 0 -268 0 -269 -268 0 c-187 0 -268 3 -268
11 -1 27 -1 483 -1 503 1 17 8 22 34 25 25 2 243 2 473 -2z"/>
</g>
</svg>
